<?xml version="1.0" standalone="no"?>
<!DOCTYPE svg PUBLIC "-//W3C//DTD SVG 20010904//EN"
 "http://www.w3.org/TR/2001/REC-SVG-20010904/DTD/svg10.dtd">
<svg version="1.0" xmlns="http://www.w3.org/2000/svg"
 width="1024.000000pt" height="1024.000000pt" viewBox="0 0 1024.000000 1024.000000"
 preserveAspectRatio="xMidYMid meet">

  <defs>
    <linearGradient id="lime-gradient" x1="0%" y1="0%" x2="100%" y2="100%">
      <stop offset="0%" style="stop-color:#A3E635; stop-opacity:1" /> <!-- Lime-400 -->
      <stop offset="50%" style="stop-color:#84CC16; stop-opacity:1" /> <!-- Lime-500 -->
      <stop offset="100%" style="stop-color:#10B981; stop-opacity:1" /> <!-- Emerald-500 -->
    </linearGradient>
  </defs>

  <g transform="translate(0.000000,1024.000000) scale(0.100000,-0.100000)"
     fill="url(#lime-gradient)" stroke="none">
    <path d="M6426 7844 c-120 -110 -375 -252 -556 -309 -262 -82 -446 -109 -745
-109 -318 0 -508 27 -747 105 -208 69 -355 148 -536 286 -45 35 -84 63 -86 63
-2 0 -10 -33 -16 -72 -9 -48 -11 -121 -7 -213 9 -209 59 -382 148 -512 l29
-41 -44 -72 c-128 -206 -197 -486 -175 -703 9 -92 47 -234 85 -316 l24 -54
-92 -96 c-385 -399 -563 -821 -630 -1496 -44 -445 26 -1298 146 -1779 14 -54
27 -100 30 -103 8 -8 277 136 496 265 511 301 952 659 1219 992 216 268 401
614 481 900 l21 75 -5 -90 c-10 -179 -80 -496 -164 -745 -148 -436 -355 -858
-619 -1263 -95 -146 -101 -141 79 -65 349 149 751 447 1042 774 309 346 541
780 651 1216 55 220 66 303 72 538 8 311 -19 541 -89 758 l-29 93 40 82 c78
159 106 277 104 442 -1 215 -63 417 -181 590 l-40 59 30 44 c97 141 150 330
151 537 0 115 -17 265 -31 265 -4 -1 -29 -21 -56 -46z m-2023 -1056 c113 -58
170 -99 266 -190 160 -152 269 -340 396 -683 27 -71 51 -134 55 -138 4 -5 11
4 15 20 15 60 120 323 167 417 68 138 158 265 258 367 99 100 174 153 313 219
94 46 102 48 128 35 64 -34 135 -158 152 -266 30 -192 -58 -389 -231 -518 -48
-36 -101 -63 -192 -97 -69 -25 -158 -67 -199 -92 -123 -75 -270 -227 -368
-379 l-40 -62 -53 80 c-111 168 -261 314 -400 388 -30 16 -104 48 -164 70
-163 61 -274 149 -347 276 -115 199 -82 477 71 590 40 30 42 29 173 -37z"/>
  </g>
</svg>